<?xml version="1.0" standalone="no"?>
<!DOCTYPE svg PUBLIC "-//W3C//DTD SVG 20010904//EN"
 "http://www.w3.org/TR/2001/REC-SVG-20010904/DTD/svg10.dtd">
<svg version="1.0" xmlns="http://www.w3.org/2000/svg"
 width="700.000000pt" height="700.000000pt" viewBox="0 0 700.000000 700.000000"
 preserveAspectRatio="xMidYMid meet">
<metadata>
Created by potrace 1.11, written by Peter Selinger 2001-2013
</metadata>
<g transform="translate(0.000000,700.000000) scale(0.100000,-0.100000)"
fill="#000000" stroke="none">
<path d="M934 6984 c-328 -55 -611 -267 -759 -569 -63 -128 -91 -222 -105
-355 -13 -129 -13 -4491 0 -4620 14 -133 42 -227 105 -355 121 -247 324 -429
580 -521 187 -67 107 -64 1922 -64 l1642 0 73 -71 c157 -154 352 -274 559
-345 550 -187 1172 -37 1564 377 223 235 352 499 405 824 15 90 15 340 0 430
-44 272 -150 516 -309 715 l-51 63 0 1777 c0 1544 -2 1789 -15 1864 -39 223
-146 420 -316 581 -128 122 -275 203 -457 253 l-97 27 -2330 2 c-1933 1 -2344
-1 -2411 -13z m1564 -880 c32 -22 52 -66 52 -113 0 -39 -17 -61 -450 -565
-247 -289 -458 -530 -469 -535 -11 -6 -39 -11 -63 -11 -42 0 -60 12 -348 228
-168 126 -311 236 -319 246 -19 23 -26 108 -11 135 16 32 69 61 110 61 45 0
59 -9 320 -205 120 -91 223 -166 228 -167 5 -2 187 205 405 459 218 254 404
466 414 472 27 16 106 13 131 -5z m3127 -624 c33 -20 65 -73 65 -105 0 -32
-32 -85 -65 -105 -32 -20 -47 -20 -1184 -20 -1256 0 -1183 -3 -1230 56 -26 33
-28 100 -5 133 9 12 30 31 48 42 30 18 67 19 1185 19 1139 0 1154 0 1186 -20z
m-3127 -1126 c32 -22 52 -66 52 -113 0 -39 -17 -61 -450 -565 -247 -289 -458
-530 -469 -535 -11 -6 -39 -11 -63 -11 -42 0 -60 12 -348 228 -168 126 -311
236 -319 246 -19 23 -26 108 -11 135 16 32 69 61 110 61 45 0 59 -9 320 -205
120 -91 223 -166 228 -167 5 -2 187 205 405 459 218 254 404 466 414 472 27
16 106 13 131 -5z m3127 -624 c33 -20 65 -73 65 -105 0 -32 -32 -85 -65 -105
-32 -20 -47 -20 -1184 -20 -1256 0 -1183 -3 -1230 56 -26 33 -28 100 -5 133 9
12 30 31 48 42 30 18 67 19 1185 19 1139 0 1154 0 1186 -20z m-3108 -1274 c27
-29 33 -44 33 -79 0 -24 -7 -53 -17 -67 -26 -37 -851 -1001 -879 -1027 -34
-31 -88 -39 -130 -20 -60 29 -620 456 -632 483 -20 43 -15 99 13 133 30 35 85
56 123 46 15 -4 139 -90 275 -192 243 -183 249 -186 267 -167 10 10 187 217
394 459 216 254 389 448 408 458 50 27 105 17 145 -27z m2958 -86 c8 0 30 -16
50 -35 l35 -36 0 -334 0 -335 309 0 c170 0 323 -3 341 -6 18 -4 48 -22 66 -41
29 -29 34 -40 34 -83 0 -43 -5 -54 -34 -83 -18 -19 -48 -37 -66 -41 -18 -3
-171 -6 -341 -6 l-309 0 0 -335 0 -334 -35 -36 c-20 -19 -46 -36 -58 -37 -68
-4 -106 14 -137 65 -19 30 -20 52 -20 354 l0 322 -328 3 c-296 3 -331 5 -355
21 -35 23 -67 74 -67 107 0 33 32 84 67 107 24 16 59 18 355 21 l328 3 0 320
c0 338 1 350 48 392 23 21 71 37 90 31 8 -2 20 -4 27 -4z m-1455 -374 c0 -2
-11 -46 -24 -98 -13 -51 -27 -105 -30 -120 l-6 -28 -336 0 c-363 0 -370 1
-413 56 -26 33 -28 100 -5 133 9 12 30 31 48 42 29 18 54 19 399 19 202 0 367
-2 367 -4z"/>
</g>
</svg>
